<svg width="52" height="52" viewBox="0 0 52 52" fill="none" xmlns="http://www.w3.org/2000/svg">
<path d="M25.9999 4.33325C23.1546 4.33325 20.3372 4.89368 17.7084 5.98253C15.0797 7.07138 12.6912 8.66734 10.6793 10.6793C6.61598 14.7426 4.33325 20.2536 4.33325 25.9999C4.33325 35.5766 10.5516 43.7016 19.1533 46.5833C20.2366 46.7566 20.5833 46.0849 20.5833 45.4999V41.8383C14.5816 43.1383 13.3033 38.9349 13.3033 38.9349C12.3066 36.4216 10.8983 35.7499 10.8983 35.7499C8.92659 34.4066 11.0499 34.4499 11.0499 34.4499C13.2166 34.6016 14.3649 36.6816 14.3649 36.6816C16.2499 39.9749 19.4349 38.9999 20.6699 38.4799C20.8649 37.0716 21.4283 36.1183 22.0349 35.5766C17.2249 35.0349 12.1766 33.1716 12.1766 24.9166C12.1766 22.5116 12.9999 20.5833 14.4083 19.0449C14.1916 18.5033 13.4333 16.2499 14.6249 13.3249C14.6249 13.3249 16.4449 12.7399 20.5833 15.5349C22.2949 15.0583 24.1583 14.8199 25.9999 14.8199C27.8416 14.8199 29.7049 15.0583 31.4166 15.5349C35.5549 12.7399 37.3749 13.3249 37.3749 13.3249C38.5666 16.2499 37.8083 18.5033 37.5916 19.0449C38.9999 20.5833 39.8232 22.5116 39.8232 24.9166C39.8232 33.1933 34.7533 35.0133 29.9216 35.5549C30.7016 36.2266 31.4166 37.5483 31.4166 39.5633V45.4999C31.4166 46.0849 31.7633 46.7783 32.8682 46.5833C41.4699 43.6799 47.6666 35.5766 47.6666 25.9999C47.6666 23.1546 47.1062 20.3372 46.0173 17.7084C44.9285 15.0797 43.3325 12.6912 41.3206 10.6793C39.3086 8.66734 36.9201 7.07138 34.2914 5.98253C31.6627 4.89368 28.8452 4.33325 25.9999 4.33325Z" fill="#E2EAFC"/>
</svg>
