<svg width="52" height="52" viewBox="0 0 52 52" fill="none" xmlns="http://www.w3.org/2000/svg">
<path d="M16.9 4.33325H35.1C42.0334 4.33325 47.6667 9.96659 47.6667 16.8999V35.0999C47.6667 38.4328 46.3427 41.6292 43.986 43.9859C41.6293 46.3426 38.4329 47.6666 35.1 47.6666H16.9C9.96671 47.6666 4.33337 42.0333 4.33337 35.0999V16.8999C4.33337 13.567 5.65736 10.3707 8.01407 8.01394C10.3708 5.65724 13.5672 4.33325 16.9 4.33325ZM16.4667 8.66658C14.398 8.66658 12.4141 9.48837 10.9513 10.9512C9.48849 12.4139 8.66671 14.3979 8.66671 16.4666V35.5332C8.66671 39.8449 12.155 43.3332 16.4667 43.3332H35.5334C37.6021 43.3332 39.586 42.5115 41.0488 41.0487C42.5116 39.5859 43.3334 37.6019 43.3334 35.5332V16.4666C43.3334 12.1549 39.845 8.66658 35.5334 8.66658H16.4667ZM37.375 11.9166C38.0933 11.9166 38.7822 12.2019 39.2901 12.7098C39.798 13.2177 40.0834 13.9066 40.0834 14.6249C40.0834 15.3432 39.798 16.0321 39.2901 16.54C38.7822 17.0479 38.0933 17.3333 37.375 17.3333C36.6567 17.3333 35.9679 17.0479 35.46 16.54C34.952 16.0321 34.6667 15.3432 34.6667 14.6249C34.6667 13.9066 34.952 13.2177 35.46 12.7098C35.9679 12.2019 36.6567 11.9166 37.375 11.9166ZM26 15.1666C28.8732 15.1666 31.6287 16.308 33.6604 18.3396C35.692 20.3712 36.8334 23.1267 36.8334 25.9999C36.8334 28.8731 35.692 31.6286 33.6604 33.6602C31.6287 35.6919 28.8732 36.8332 26 36.8332C23.1269 36.8332 20.3714 35.6919 18.3397 33.6602C16.3081 31.6286 15.1667 28.8731 15.1667 25.9999C15.1667 23.1267 16.3081 20.3712 18.3397 18.3396C20.3714 16.308 23.1269 15.1666 26 15.1666ZM26 19.4999C24.2761 19.4999 22.6228 20.1847 21.4038 21.4037C20.1849 22.6227 19.5 24.276 19.5 25.9999C19.5 27.7238 20.1849 29.3771 21.4038 30.5961C22.6228 31.8151 24.2761 32.4999 26 32.4999C27.7239 32.4999 29.3772 31.8151 30.5962 30.5961C31.8152 29.3771 32.5 27.7238 32.5 25.9999C32.5 24.276 31.8152 22.6227 30.5962 21.4037C29.3772 20.1847 27.7239 19.4999 26 19.4999Z" fill="#E2EAFC"/>
</svg>
