<svg width="324" height="363" viewBox="0 0 324 363" fill="none" xmlns="http://www.w3.org/2000/svg">
<g clip-path="url(#clip0_176_657)">
<path d="M284.049 279.689H5.40308V0H284.049V279.689Z" fill="white"/>
<path d="M284.049 279.689H5.40308V0H284.049V279.689ZM9.52002 275.557H279.933V4.13239H9.52002V275.557Z" fill="#2F2E41"/>
<path d="M234.686 43.7576H114.021V47.5304H234.686V43.7576Z" fill="#2F2E41"/>
<path d="M234.686 53.5669H114.021V57.3398H234.686V53.5669Z" fill="#2F2E41"/>
<path d="M234.686 63.3765H114.021V67.1493H234.686V63.3765Z" fill="#2F2E41"/>
<path d="M234.686 127.989H114.021V131.762H234.686V127.989Z" fill="#2F2E41"/>
<path d="M234.686 137.799H114.021V141.571H234.686V137.799Z" fill="#2F2E41"/>
<path d="M234.686 147.608H114.021V151.381H234.686V147.608Z" fill="#2F2E41"/>
<path d="M234.686 212.221H114.021V215.994H234.686V212.221Z" fill="#2F2E41"/>
<path d="M234.686 222.03H114.021V225.803H234.686V222.03Z" fill="#2F2E41"/>
<path d="M234.686 231.84H114.021V235.612H234.686V231.84Z" fill="#2F2E41"/>
<path d="M65.7156 73.8175C63.6542 72.7271 61.5025 71.8182 59.2847 71.1011L59.0019 67.961L47.5328 66.7207L46.0752 70.7342L41.9592 72.2846C41.8119 72.3406 41.6717 72.4139 41.5415 72.503H41.537C41.3073 72.6588 41.1117 72.86 40.9621 73.0943C40.8125 73.3285 40.712 73.591 40.6668 73.8655C40.6229 74.1385 40.6333 74.4176 40.6974 74.6866L40.915 75.5819C41.2282 75.7697 41.5502 75.9487 41.8721 76.119L42.0767 76.2239C42.5466 76.4684 43.0252 76.6999 43.5169 76.9139C43.6169 76.9576 43.7257 77.0012 43.8258 77.0449C43.8345 77.0493 43.8387 77.0493 43.8474 77.0536C44.0782 77.1497 44.3087 77.2414 44.5436 77.3288C45.3154 77.6246 46.1027 77.8783 46.9018 78.0887C48.9415 78.6343 51.0434 78.9104 53.1542 78.9097C53.9244 78.9097 54.6858 78.8748 55.4385 78.8005C57.1584 78.6412 58.8563 78.2971 60.5031 77.7742C60.5074 77.7742 60.5118 77.7699 60.5161 77.7699C61.5564 77.4372 62.5726 77.033 63.5575 76.5601C63.5618 76.5558 63.5705 76.5558 63.5749 76.5514C63.7967 76.4466 64.01 76.3331 64.2276 76.2239L64.3319 76.1714C64.5059 76.0797 64.6801 75.988 64.8541 75.8919C65.2892 75.6517 65.7156 75.3984 66.1375 75.1277C66.255 75.0578 66.3682 74.9835 66.4857 74.9049C66.651 74.7958 66.8163 74.6822 66.9773 74.5643C66.5726 74.3023 66.1507 74.0533 65.7156 73.8175Z" fill="#3F3D56"/>
<path d="M44.1911 75.7524L43.4733 72.4988H41.598C41.5791 72.499 41.5602 72.5005 41.5415 72.5031H41.537C40.8631 72.5604 40.2141 72.7856 39.6488 73.1582C39.2653 73.4039 38.9244 73.7107 38.6394 74.0666C39.1962 74.4902 39.7749 74.8833 40.3711 75.2589L40.3972 75.272C40.5667 75.3768 40.741 75.4816 40.915 75.582C41.2282 75.7698 41.5502 75.9489 41.8721 76.1192L42.0767 76.2241C42.5466 76.4686 43.0252 76.7001 43.5169 76.914C43.6169 76.9577 43.7257 77.0014 43.8258 77.0451C43.8345 77.0495 43.8387 77.0495 43.8474 77.0538C44.0782 77.1499 44.3087 77.2416 44.5436 77.329L44.1911 75.7524Z" fill="#3F3D56"/>
<path d="M52.8173 64.7357C57.3793 64.7357 61.0775 61.0237 61.0775 56.4446C61.0775 51.8656 57.3793 48.1536 52.8173 48.1536C48.2553 48.1536 44.5571 51.8656 44.5571 56.4446C44.5571 61.0237 48.2553 64.7357 52.8173 64.7357Z" fill="#FFB8B8"/>
<path d="M47.2713 52.4061C48.1264 53.4218 49.5735 53.7085 50.9083 53.826C54.0293 53.999 57.1591 53.7425 60.2107 53.0635C60.3998 54.9031 59.8842 56.8866 60.9637 58.3998C61.4697 56.5678 61.7639 54.6834 61.8406 52.7839C61.9212 51.9689 61.8152 51.1462 61.5306 50.3786C61.3785 49.9939 61.1219 49.6598 60.79 49.4142C60.4582 49.1686 60.0643 49.0214 59.6532 48.9893C60.2686 48.5207 60.9894 48.2114 61.7521 48.0886L59.1293 46.7656L59.8029 46.0716L55.0545 45.7799L56.4298 44.9029C54.3598 44.6174 52.2657 44.5511 50.1819 44.705C49.2082 44.7054 48.2529 44.9719 47.4186 45.476C46.6346 46.0387 46.1816 47.1572 46.6683 47.9834C46.0589 48.0838 45.4852 48.3387 45.0015 48.724C44.5178 49.1092 44.14 49.6121 43.9041 50.1849C43.6057 51.0953 43.5337 52.0652 43.6942 53.0099C43.8731 54.5258 44.2241 56.0161 44.7403 57.4519L47.2713 52.4061Z" fill="#2F2E41"/>
<path d="M76.0446 47.4567C74.8856 44.1148 73.0144 41.0669 70.5613 38.5255C68.1082 35.9841 65.1323 34.0103 61.8412 32.7419C58.5501 31.4736 55.0229 30.941 51.5057 31.1815C47.9884 31.4219 44.5658 32.4296 41.4764 34.1342C38.387 35.8388 35.7053 38.1993 33.6182 41.0511C31.531 43.9029 30.0888 47.1774 29.392 50.6462C28.6952 54.1149 28.7606 57.6945 29.5837 61.1353C30.4068 64.5761 31.9677 67.7952 34.1576 70.5683C34.3752 70.8434 34.6015 71.1186 34.8322 71.385C34.8496 71.4024 34.8626 71.4199 34.88 71.4374C35.4471 72.0933 36.0499 72.7173 36.6856 73.3065C36.8511 73.4594 37.0251 73.6166 37.1991 73.7651C37.5296 74.0621 37.8691 74.346 38.2216 74.6167C38.3608 74.7259 38.4956 74.8351 38.6393 74.9399C39.1961 75.3636 39.7748 75.7566 40.371 76.1322L40.3971 76.1453C40.5666 76.2501 40.7408 76.3549 40.9149 76.4554C41.228 76.6432 41.5501 76.8222 41.8719 76.9925L42.0765 77.0974C42.5465 77.3419 43.0251 77.5734 43.5167 77.7874C43.6168 77.8311 43.7256 77.8747 43.8256 77.9184C43.8343 77.9228 43.8386 77.9228 43.8473 77.9272C44.078 78.0232 44.3085 78.1149 44.5435 78.2023C45.3153 78.4982 46.1025 78.7518 46.9017 78.9622C48.9413 79.5078 51.0432 79.7839 53.1541 79.7832C53.9242 79.7832 54.6857 79.7483 55.4384 79.6741C57.1583 79.5147 58.8562 79.1706 60.503 78.6478C60.5072 78.6478 60.5117 78.6434 60.5159 78.6434C61.5562 78.3107 62.5725 77.9065 63.5574 77.4336C63.5616 77.4293 63.5703 77.4293 63.5748 77.4249C63.7966 77.3201 64.0099 77.2066 64.2275 77.0974L64.3318 77.0449C64.5058 76.9532 64.68 76.8615 64.854 76.7654C65.2891 76.5252 65.7155 76.2719 66.1374 76.0012C66.2549 75.9313 66.3681 75.8571 66.4856 75.7784C66.6509 75.6693 66.8162 75.5557 66.9772 75.4378C67.1903 75.2893 67.4036 75.1364 67.6124 74.9792C67.6776 74.9312 67.7473 74.8832 67.8125 74.8308C71.8888 71.7251 74.8809 67.4038 76.3597 62.4863C77.8385 57.5687 77.7282 52.3074 76.0446 47.4567V47.4567ZM67.0121 73.7695C66.8684 73.883 66.7206 73.9922 66.5725 74.0927C66.4289 74.2019 66.2855 74.3067 66.1374 74.4027C66.0112 74.4945 65.885 74.5818 65.7545 74.6648L65.7155 74.691C65.6196 74.7565 65.524 74.8176 65.4282 74.8788C65.0671 75.1059 64.7016 75.3242 64.3318 75.5339L64.2143 75.5994C64.049 75.6911 63.8837 75.7785 63.7184 75.8658C63.6965 75.8789 63.6704 75.8876 63.6488 75.9007L63.6226 75.9138C63.4138 76.023 63.2005 76.1278 62.9874 76.2283C62.1647 76.626 61.3174 76.9702 60.4508 77.259C60.3375 77.2983 60.2245 77.3376 60.1115 77.3725C58.5527 77.8701 56.9452 78.1981 55.3167 78.3508C54.603 78.4163 53.8807 78.4512 53.1541 78.4512C51.1576 78.4553 49.1693 78.194 47.2412 77.6738C46.2517 77.4146 45.2819 77.0848 44.3391 76.6869C44.2911 76.665 44.2389 76.6476 44.191 76.6257C44.139 76.6039 44.091 76.5864 44.0432 76.5646C43.9909 76.5427 43.9431 76.5209 43.8908 76.4947C43.4819 76.3156 43.0772 76.1191 42.6814 75.9138L42.49 75.8134C42.0068 75.5601 41.5327 75.2893 41.0714 75.0011C40.9365 74.9181 40.7974 74.8308 40.6667 74.739C40.6321 74.7172 40.6015 74.6954 40.5666 74.6735C40.2577 74.4683 39.9488 74.2543 39.6487 74.0315C39.4443 73.8787 39.2397 73.7258 39.0395 73.5686C38.7045 73.3153 38.3824 73.0445 38.0693 72.765C37.904 72.6253 37.7429 72.4724 37.5864 72.3283C36.9695 71.7565 36.3855 71.15 35.8373 70.5115C35.6546 70.3019 35.4761 70.0923 35.3064 69.8739C35.2678 69.8307 35.2315 69.7855 35.1976 69.7385C32.3706 66.1579 30.6702 61.8132 30.3133 57.2586C29.9563 52.704 30.9589 48.1459 33.1933 44.1656C35.4277 40.1853 38.7926 36.9631 42.8587 34.9101C46.9249 32.8571 51.5082 32.0663 56.024 32.6384C60.5398 33.2106 64.7835 35.1199 68.2138 38.1227C71.6442 41.1255 74.1058 45.0859 75.2847 49.4987C76.4635 53.9115 76.3062 58.5767 74.8329 62.8994C73.3595 67.2221 70.6368 71.0063 67.012 73.7695L67.0121 73.7695Z" fill="#3F3D56"/>
<path d="M76.0448 131.688C74.8858 128.346 73.0146 125.299 70.5615 122.757C68.1084 120.216 65.1325 118.242 61.8414 116.974C58.5503 115.705 55.0231 115.173 51.5059 115.413C47.9887 115.654 44.566 116.661 41.4767 118.366C38.3873 120.071 35.7055 122.431 33.6184 125.283C31.5313 128.135 30.089 131.409 29.3922 134.878C28.6954 138.347 28.7609 141.926 29.5839 145.367C30.407 148.808 31.9679 152.027 34.1579 154.8C34.3754 155.075 34.6017 155.35 34.8322 155.617C34.8496 155.634 34.8626 155.652 34.88 155.669C35.4473 156.325 36.0501 156.949 36.6858 157.538C36.8511 157.691 37.0251 157.848 37.1991 157.997C37.5299 158.294 37.8692 158.578 38.2216 158.848C38.9098 159.393 39.6273 159.899 40.371 160.364L40.3971 160.377C40.88 160.678 41.3716 160.958 41.8721 161.224L42.0765 161.329C42.5465 161.574 43.0251 161.805 43.5167 162.019C43.6168 162.063 43.7256 162.106 43.8256 162.15C43.8343 162.154 43.8388 162.154 43.8475 162.159C44.8409 162.573 45.8614 162.919 46.9019 163.194C48.9415 163.739 51.0433 164.015 53.1541 164.015C53.9243 164.015 54.6857 163.98 55.4384 163.906C57.1583 163.746 58.8562 163.402 60.503 162.879C60.5075 162.879 60.5117 162.875 60.5159 162.875C61.5562 162.542 62.5725 162.138 63.5574 161.665C63.5616 161.661 63.5706 161.661 63.5748 161.657C63.7966 161.552 64.0099 161.438 64.2275 161.329L64.332 161.277C64.506 161.185 64.68 161.093 64.854 160.997C65.2891 160.757 65.7155 160.504 66.1376 160.233C66.2551 160.163 66.3681 160.089 66.4856 160.01C66.8684 159.757 67.247 159.486 67.6124 159.211C67.6779 159.163 67.7473 159.115 67.8128 159.062C71.8889 155.957 74.8808 151.635 76.3597 146.718C77.8385 141.8 77.7282 136.539 76.0448 131.688V131.688Z" fill="white"/>
<path d="M61.1529 149.714C63.1591 149.714 64.7855 148.082 64.7855 146.068C64.7855 144.054 63.1591 142.422 61.1529 142.422C59.1467 142.422 57.5203 144.054 57.5203 146.068C57.5203 148.082 59.1467 149.714 61.1529 149.714Z" fill="#2F2E41"/>
<path d="M62.1651 142.522C62.7938 142.522 63.4118 142.686 63.9586 142.997C64.5053 143.309 64.9622 143.758 65.2845 144.3C65.6068 144.841 65.7834 145.458 65.7972 146.089C65.811 146.72 65.6614 147.344 65.363 147.899C65.6779 147.504 65.9072 147.047 66.0364 146.557C66.1656 146.068 66.1918 145.557 66.1133 145.057C66.0349 144.557 65.8535 144.078 65.5807 143.652C65.308 143.227 64.9499 142.862 64.5292 142.583C64.1085 142.304 63.6344 142.116 63.1373 142.03C62.6401 141.945 62.1306 141.965 61.6414 142.088C61.1522 142.211 60.694 142.435 60.2959 142.746C59.8977 143.057 59.5685 143.448 59.3291 143.893C59.6687 143.465 60.1001 143.12 60.5912 142.882C61.0823 142.645 61.6204 142.522 62.1655 142.522L62.1651 142.522Z" fill="#2F2E41"/>
<path d="M54.3646 146.06C60.2581 146.06 65.0358 141.264 65.0358 135.349C65.0358 129.433 60.2581 124.638 54.3646 124.638C48.471 124.638 43.6934 129.433 43.6934 135.349C43.6934 141.264 48.471 146.06 54.3646 146.06Z" fill="#2F2E41"/>
<path d="M45.9894 128.703C47.8282 126.627 50.3984 125.35 53.1577 125.141C55.917 124.931 58.6494 125.806 60.7784 127.58C60.6914 127.496 60.6044 127.413 60.5143 127.332C58.4063 125.436 55.6345 124.459 52.8085 124.615C49.9826 124.771 47.3341 126.047 45.4457 128.163C43.5572 130.279 42.5835 133.061 42.7387 135.897C42.894 138.734 44.1655 141.392 46.2735 143.288C46.2937 143.306 46.3141 143.324 46.3345 143.342C46.425 143.423 46.5181 143.499 46.6108 143.577C44.6059 141.662 43.4205 139.041 43.3046 136.266C43.1888 133.491 44.1516 130.779 45.9899 128.703L45.9894 128.703Z" fill="#2F2E41"/>
<path d="M54.2742 145.969C58.0699 145.969 61.147 142.881 61.147 139.071C61.147 135.261 58.0699 132.172 54.2742 132.172C50.4784 132.172 47.4014 135.261 47.4014 139.071C47.4014 142.881 50.4784 145.969 54.2742 145.969Z" fill="#A0616A"/>
<path d="M66.5728 157.045V159.36C66.1507 159.63 65.7243 159.884 65.2892 160.124C65.1152 160.22 64.9412 160.312 64.7672 160.403L64.6627 160.456C64.4451 160.565 64.2318 160.678 64.01 160.783C64.0058 160.788 63.9968 160.788 63.9926 160.792C63.0077 161.265 61.9914 161.669 60.9511 162.002C60.9469 162.002 60.9427 162.006 60.9382 162.006C59.2914 162.529 57.5935 162.873 55.8736 163.032C55.1209 163.107 54.3595 163.142 53.5893 163.142C51.4785 163.142 49.3767 162.866 47.3371 162.321C46.2966 162.046 45.2761 161.7 44.2827 161.285C44.274 161.281 44.2696 161.281 44.2608 161.277C44.1608 161.233 44.052 161.189 43.9519 161.146C43.4603 160.932 42.9817 160.7 42.5117 160.456L42.3074 160.351C41.8068 160.084 41.3152 159.805 40.8323 159.504L40.8062 159.491C40.0625 159.025 39.345 158.52 38.6568 157.975C38.3044 157.704 37.9651 157.42 37.6343 157.123C37.4603 156.975 37.2863 156.818 37.121 156.665C36.4853 156.076 35.8825 155.452 35.3152 154.796C35.3904 154.341 35.501 153.893 35.646 153.455L35.6502 153.451C35.6763 153.376 35.7068 153.303 35.7416 153.232C35.7656 153.17 35.7932 153.108 35.8242 153.049C36.6031 151.586 38.0129 151.223 39.762 151.145C40.7497 151.101 41.8417 151.149 42.9949 151.136C43.6039 151.132 44.2347 151.11 44.8657 151.053C48.8468 150.691 48.1247 148.332 48.3029 147.061C48.4814 145.83 49.5866 146.895 49.6605 146.965L49.6648 146.97C51.9177 148.028 54.4102 148.466 56.8874 148.24C57.3138 148.188 57.7402 148.157 58.1666 148.144C59.2892 148.131 59.0455 148.454 58.6584 148.721C58.4705 148.845 58.2742 148.956 58.071 149.053C58.071 149.053 57.8925 150.145 57.7098 151.778C57.5358 153.341 60.5206 154.075 60.7685 154.132C60.7736 154.135 60.7798 154.137 60.7859 154.136C61.8759 153.853 63.0235 153.883 64.0972 154.224H64.1014C64.7149 154.45 65.2622 154.827 65.6938 155.319C66.1254 155.812 66.4276 156.405 66.5728 157.045Z" fill="#EFBA0F"/>
<path d="M44.3261 159.853C44.3261 160.176 44.3175 160.486 44.3044 160.779C44.3001 160.954 44.2914 161.124 44.2827 161.285C44.274 161.281 44.2695 161.281 44.2608 161.277C44.1608 161.233 44.052 161.189 43.9519 161.146C43.4603 160.932 42.9817 160.7 42.5117 160.456L42.3074 160.351C41.8068 160.085 41.3152 159.805 40.8323 159.504C40.8453 159.351 40.8672 159.198 40.8888 159.045C40.9366 158.709 40.9759 158.368 41.002 158.032C41.1731 155.669 40.7465 153.302 39.762 151.149V151.145C39.6749 150.97 39.6228 150.874 39.6228 150.874C39.6228 150.874 40.8888 149.782 42.6944 150.874C42.8098 150.942 42.9116 151.031 42.9948 151.136C44.0826 152.424 44.3783 156.757 44.3261 159.853Z" fill="#EFBA0F"/>
<path d="M64.0839 159.259C64.0665 159.748 64.0403 160.259 64.0099 160.779V160.783C64.0057 160.788 63.9968 160.788 63.9925 160.792C63.0076 161.265 61.9914 161.669 60.9511 162.002C60.9468 162.002 60.9426 162.006 60.9381 162.006L60.8903 160.779L60.8859 160.617L60.6553 154.643C60.6492 154.508 60.6704 154.373 60.7177 154.246C60.7649 154.119 60.8373 154.003 60.9304 153.905C61.0235 153.807 61.1355 153.729 61.2594 153.676C61.3834 153.622 61.5169 153.595 61.6517 153.595H63.8576C63.9664 153.595 64.0448 153.817 64.097 154.219V154.224C64.204 155.901 64.1996 157.583 64.0839 159.259Z" fill="#EFBA0F"/>
<path d="M48.396 130.447V137.348H49.9876L52.013 135.169L51.7419 137.348H58.7775L58.3424 135.169L59.2125 137.348H60.3342V130.447H48.396Z" fill="#2F2E41"/>
<path d="M47.3106 138.617C47.6103 138.617 47.8532 138.17 47.8532 137.618C47.8532 137.067 47.6103 136.62 47.3106 136.62C47.011 136.62 46.7681 137.067 46.7681 137.618C46.7681 138.17 47.011 138.617 47.3106 138.617Z" fill="#A0616A"/>
<path d="M61.2379 138.617C61.5375 138.617 61.7804 138.17 61.7804 137.618C61.7804 137.067 61.5375 136.62 61.2379 136.62C60.9382 136.62 60.6953 137.067 60.6953 137.618C60.6953 138.17 60.9382 138.617 61.2379 138.617Z" fill="#A0616A"/>
<path d="M68.0475 158.337C67.6821 158.612 67.3035 158.883 66.9207 159.137C66.8032 159.215 66.6902 159.289 66.5727 159.359C66.1506 159.63 65.7242 159.883 65.2891 160.124C65.1151 160.22 64.9411 160.311 64.7671 160.403V155.59C64.7671 155.59 65.4631 156.149 66.5727 157.08C66.7118 157.197 66.8555 157.32 67.0078 157.451C67.3297 157.722 67.6779 158.019 68.0475 158.337Z" fill="#EFBA0F"/>
<path d="M76.0448 131.688C74.8858 128.346 73.0146 125.299 70.5615 122.757C68.1084 120.216 65.1325 118.242 61.8414 116.974C58.5503 115.705 55.0231 115.173 51.5059 115.413C47.9887 115.654 44.566 116.661 41.4767 118.366C38.3873 120.071 35.7055 122.431 33.6184 125.283C31.5313 128.135 30.089 131.409 29.3922 134.878C28.6954 138.347 28.7609 141.926 29.5839 145.367C30.407 148.808 31.9679 152.027 34.1579 154.8C34.3754 155.075 34.6017 155.35 34.8322 155.617C34.8496 155.634 34.8626 155.652 34.88 155.669C35.4473 156.325 36.0501 156.949 36.6858 157.538C36.8511 157.691 37.0251 157.848 37.1991 157.997C37.5299 158.294 37.8692 158.578 38.2216 158.848C38.9098 159.393 39.6273 159.899 40.371 160.364L40.3971 160.377C40.88 160.678 41.3716 160.958 41.8721 161.224L42.0765 161.329C42.5465 161.574 43.0251 161.805 43.5167 162.019C43.6168 162.063 43.7256 162.106 43.8256 162.15C43.8343 162.154 43.8388 162.154 43.8475 162.159C44.8409 162.573 45.8614 162.919 46.9019 163.194C48.9415 163.739 51.0433 164.015 53.1541 164.015C53.9243 164.015 54.6857 163.98 55.4384 163.906C57.1583 163.746 58.8562 163.402 60.503 162.879C60.5075 162.879 60.5117 162.875 60.5159 162.875C61.5562 162.542 62.5725 162.138 63.5574 161.665C63.5616 161.661 63.5706 161.661 63.5748 161.657C63.7966 161.552 64.0099 161.438 64.2275 161.329L64.332 161.277C64.506 161.185 64.68 161.093 64.854 160.997C65.2891 160.757 65.7155 160.504 66.1376 160.233C66.2551 160.163 66.3681 160.089 66.4856 160.01C66.8684 159.757 67.247 159.486 67.6124 159.211C67.6779 159.163 67.7473 159.115 67.8128 159.062C71.8889 155.957 74.8808 151.635 76.3597 146.718C77.8385 141.8 77.7282 136.539 76.0448 131.688V131.688ZM67.012 158.001C66.8684 158.115 66.7206 158.224 66.5727 158.324C66.4291 158.433 66.2855 158.538 66.1376 158.634C66.0114 158.726 65.8852 158.813 65.7546 158.896C65.6458 158.971 65.537 159.041 65.4282 159.11C65.0673 159.338 64.7018 159.556 64.332 159.765L64.2143 159.831C64.049 159.923 63.8837 160.01 63.7184 160.097C63.6965 160.111 63.6704 160.119 63.6488 160.132L63.6226 160.145C63.4138 160.255 63.2007 160.359 62.9874 160.46C62.1647 160.858 61.3174 161.202 60.4508 161.491C60.3377 161.53 60.2245 161.569 60.1115 161.604C58.5527 162.102 56.9452 162.43 55.3167 162.582C54.603 162.648 53.8807 162.683 53.1541 162.683C51.1576 162.687 49.1693 162.426 47.2412 161.905C46.2517 161.646 45.2819 161.316 44.3391 160.918C44.2391 160.879 44.139 160.835 44.0432 160.796C43.9911 160.774 43.9431 160.753 43.8909 160.726C43.4819 160.547 43.0774 160.351 42.6814 160.145L42.49 160.045C42.0071 159.792 41.5327 159.521 41.0714 159.233C40.9019 159.128 40.7321 159.019 40.5669 158.905C40.0447 158.56 39.5356 158.189 39.0396 157.8C38.7045 157.547 38.3827 157.276 38.0693 156.997C37.904 156.857 37.7429 156.704 37.5864 156.56C36.9695 155.988 36.3855 155.382 35.8373 154.743C35.6546 154.534 35.4761 154.324 35.3064 154.106C35.2678 154.062 35.2315 154.017 35.1976 153.97C32.3706 150.389 30.6702 146.045 30.3133 141.49C29.9563 136.936 30.959 132.378 33.1933 128.397C35.4277 124.417 38.7926 121.195 42.8588 119.142C46.925 117.089 51.5082 116.298 56.024 116.87C60.5398 117.442 64.7835 119.351 68.2138 122.354C71.6442 125.357 74.1058 129.318 75.2847 133.73C76.4635 138.143 76.3062 142.808 74.8329 147.131C73.3595 151.454 70.6368 155.238 67.012 158.001V158.001Z" fill="#3F3D56"/>
<path d="M53.2911 234.852C58.536 234.852 62.7878 230.584 62.7878 225.32C62.7878 220.055 58.536 215.788 53.2911 215.788C48.0462 215.788 43.7944 220.055 43.7944 225.32C43.7944 230.584 48.0462 234.852 53.2911 234.852Z" fill="#2F2E41"/>
<path d="M45.8784 220.18C47.413 218.64 47.724 216.455 46.573 215.299C45.4221 214.144 43.245 214.456 41.7103 215.997C40.1757 217.537 39.8647 219.722 41.0157 220.877C42.1666 222.033 44.3437 221.721 45.8784 220.18Z" fill="#2F2E41"/>
<path d="M63.189 217.153C63.8284 215.651 62.7288 213.739 60.733 212.883C58.7372 212.027 56.6009 212.552 55.9615 214.054C55.3221 215.557 56.4216 217.468 58.4175 218.324C60.4133 219.18 62.5496 218.656 63.189 217.153Z" fill="#2F2E41"/>
<path d="M64.6505 243.81L63.5316 242.043C63.0568 240.978 62.1811 240.146 61.0961 239.728C60.0112 239.31 58.8056 239.341 57.7433 239.814C56.681 240.286 55.8486 241.162 55.4285 242.25C55.0083 243.337 55.0347 244.548 55.5017 245.616L55.8199 246.761L56.182 248.06C57.6479 247.874 59.0943 247.557 60.5039 247.113C60.5081 247.113 60.512 247.111 60.5149 247.108C61.5569 246.777 62.5742 246.372 63.5591 245.896C63.5645 245.891 63.5698 245.891 63.5755 245.885C63.7948 245.781 64.0088 245.671 64.2281 245.561C64.264 245.544 64.2988 245.526 64.3323 245.506C64.5077 245.417 64.6834 245.324 64.8535 245.23C65.0289 245.137 65.1989 245.038 65.3634 244.933L64.6505 243.81Z" fill="#2F2E41"/>
<path d="M53.5922 235.685C58.0435 235.685 61.6519 232.063 61.6519 227.596C61.6519 223.128 58.0435 219.506 53.5922 219.506C49.1409 219.506 45.5325 223.128 45.5325 227.596C45.5325 232.063 49.1409 235.685 53.5922 235.685Z" fill="#FFB6B6"/>
<path d="M65.232 243.463C64.3429 241.979 63.2394 240.636 61.9574 239.477C61.0793 238.689 59.9429 238.254 58.7654 238.255H47.4117C46.7575 238.255 46.1102 238.389 45.5098 238.65C44.9093 238.911 44.3686 239.292 43.9208 239.771C43.4731 240.25 43.128 240.816 42.9067 241.434C42.6855 242.052 42.5928 242.708 42.6345 243.364C42.6593 243.733 42.7256 244.099 42.8321 244.454C42.913 244.711 43.0139 244.961 43.1337 245.203L43.6931 246.326C43.737 246.342 43.781 246.364 43.8246 246.381C43.8356 246.386 43.8412 246.386 43.8466 246.392C44.0769 246.485 44.3075 246.579 44.5431 246.667C45.3149 246.963 46.1023 247.217 46.9017 247.427C48.1886 247.774 49.5022 248.011 50.8287 248.137C51.6021 248.209 52.3756 248.247 53.1544 248.247C53.9278 248.247 54.6846 248.209 55.4415 248.137C55.6884 248.115 55.935 248.087 56.182 248.06C57.6479 247.874 59.0943 247.557 60.5039 247.113C60.5081 247.112 60.512 247.11 60.5149 247.107C61.5569 246.776 62.5742 246.372 63.5591 245.896C63.5645 245.891 63.5698 245.891 63.5755 245.885C63.7948 245.781 64.0088 245.671 64.2281 245.56C64.264 245.544 64.2987 245.526 64.3323 245.505C64.5077 245.417 64.6834 245.324 64.8535 245.23C65.0289 245.137 65.1988 245.037 65.3634 244.933C65.539 244.839 65.7035 244.735 65.8736 244.63C65.6653 244.217 65.4513 243.832 65.232 243.463Z" fill="#2F2E41"/>
<path d="M49.4685 239.73C48.4178 239.237 47.2153 239.181 46.1238 239.575C45.0324 239.969 44.1407 240.781 43.6439 241.833L42.6345 243.364L42.1519 244.096L41.417 245.208C41.5705 245.291 41.7186 245.373 41.8723 245.456L42.075 245.56C42.5469 245.803 43.0239 246.034 43.5177 246.249C43.5723 246.276 43.6329 246.298 43.6931 246.326C43.737 246.342 43.781 246.364 43.8246 246.381C43.8356 246.386 43.8412 246.386 43.8466 246.392C44.0769 246.485 44.3075 246.579 44.5431 246.667C45.315 246.963 46.1023 247.217 46.9018 247.427C48.1886 247.774 49.5022 248.011 50.8287 248.137L51.2127 246.832L51.5858 245.588C52.0775 244.529 52.1307 243.318 51.7338 242.22C51.3368 241.122 50.5222 240.226 49.4685 239.73Z" fill="#2F2E41"/>
<path d="M45.1233 222.507C46.9651 223.781 49.1511 224.459 51.3879 224.45C50.59 225.006 49.6817 225.381 48.7254 225.55C51.6995 226.19 54.7732 226.207 57.7542 225.601C58.4168 225.494 59.0562 225.273 59.6442 224.949C59.9373 224.785 60.1926 224.56 60.3936 224.291C60.5946 224.021 60.7367 223.711 60.8108 223.383C61.0089 222.247 60.1272 221.215 59.2108 220.52C57.8078 219.471 56.1901 218.749 54.4747 218.404C52.7594 218.06 50.9894 218.103 49.2926 218.53C48.1621 218.759 47.1333 219.342 46.3552 220.196C45.9786 220.631 45.7514 221.176 45.7069 221.75C45.6623 222.325 45.803 222.898 46.108 223.386L45.1233 222.507Z" fill="#2F2E41"/>
<path d="M76.0479 215.92C74.8892 212.578 73.0181 209.529 70.565 206.988C68.1119 204.446 65.136 202.472 61.8447 201.203C58.5534 199.934 55.026 199.402 51.5085 199.642C47.991 199.883 44.5681 200.89 41.4785 202.595C38.3889 204.3 35.7069 206.66 33.6197 209.512C31.5325 212.364 30.0902 215.639 29.3935 219.108C28.6968 222.577 28.7624 226.157 29.5858 229.598C30.4091 233.039 31.9704 236.258 34.1607 239.031C34.3744 239.307 34.605 239.582 34.8354 239.846C34.8486 239.866 34.8632 239.884 34.8793 239.901C35.4473 240.557 36.0515 241.18 36.6892 241.767C36.8536 241.922 37.0237 242.081 37.1993 242.23C37.5282 242.527 37.8683 242.808 38.2248 243.078C38.3619 243.188 38.499 243.298 38.6418 243.403C39.1956 243.826 39.777 244.217 40.3694 244.597C40.3796 244.597 40.3893 244.601 40.3967 244.608C40.5668 244.713 40.7425 244.817 40.9179 244.916C41.0823 245.016 41.2524 245.115 41.4171 245.208C41.5706 245.291 41.7187 245.373 41.8724 245.456L42.0751 245.561C42.547 245.803 43.024 246.034 43.5178 246.249C43.5725 246.276 43.633 246.298 43.6933 246.326C43.7372 246.342 43.7811 246.364 43.8247 246.381C43.8357 246.386 43.8413 246.386 43.8467 246.392C44.077 246.485 44.3076 246.579 44.5433 246.667C45.3151 246.963 46.1025 247.217 46.9019 247.427C48.1887 247.774 49.5023 248.011 50.8288 248.137C51.6023 248.209 52.3757 248.247 53.1545 248.247C53.9279 248.247 54.6847 248.209 55.4416 248.137C55.6885 248.115 55.9352 248.088 56.1821 248.06C57.648 247.874 59.0944 247.557 60.5041 247.113C60.5082 247.113 60.5121 247.111 60.515 247.108C61.557 246.777 62.5743 246.372 63.5592 245.896C63.5646 245.891 63.57 245.891 63.5756 245.885C63.7949 245.781 64.0089 245.671 64.2282 245.561C64.2641 245.544 64.2989 245.526 64.3324 245.506C64.5078 245.417 64.6835 245.324 64.8536 245.23C65.029 245.137 65.199 245.038 65.3635 244.933C65.5392 244.839 65.7036 244.735 65.8737 244.63C65.9615 244.575 66.0493 244.52 66.137 244.465C66.2577 244.393 66.3673 244.322 66.4881 244.239C66.6525 244.135 66.8172 244.019 66.976 243.903C67.19 243.755 67.404 243.601 67.6123 243.441C67.6826 243.395 67.7503 243.345 67.8153 243.292C71.8885 240.185 74.8781 235.863 76.3568 230.947C77.8354 226.031 77.7273 220.771 76.0479 215.92L76.0479 215.92ZM67.0146 242.23C66.8718 242.345 66.7238 242.456 66.5759 242.555C66.4275 242.665 66.2851 242.769 66.137 242.869C66.0108 242.957 65.8847 243.045 65.7532 243.127C65.7413 243.138 65.7284 243.147 65.7146 243.155C65.6214 243.221 65.5226 243.281 65.4294 243.342C65.3635 243.38 65.2979 243.425 65.2321 243.463C65.04 243.584 64.848 243.7 64.6506 243.81C64.5465 243.876 64.4366 243.937 64.3325 243.997C64.2942 244.019 64.2556 244.041 64.2173 244.063C64.0472 244.157 63.8828 244.239 63.7181 244.327C63.6964 244.344 63.6688 244.349 63.6525 244.366C63.6423 244.366 63.6325 244.37 63.6249 244.377C63.4165 244.487 63.2026 244.592 62.9888 244.691C62.1653 245.089 61.317 245.432 60.4492 245.72C60.3396 245.759 60.2245 245.803 60.1147 245.836C58.7159 246.281 57.2777 246.591 55.82 246.761C55.6556 246.783 55.4855 246.799 55.3155 246.816C54.6026 246.882 53.884 246.915 53.1545 246.915C52.5072 246.915 51.8545 246.887 51.2129 246.832C49.8713 246.72 48.5424 246.488 47.242 246.139C46.2521 245.88 45.2824 245.549 44.3406 245.148C44.291 245.126 44.2418 245.109 44.1925 245.087C44.1376 245.065 44.0937 245.049 44.0444 245.027C43.9895 245.005 43.9456 244.983 43.8907 244.955C43.5342 244.801 43.1777 244.63 42.8323 244.454C42.7827 244.427 42.7335 244.404 42.6842 244.377L42.4922 244.278C42.377 244.217 42.2618 244.157 42.152 244.096C41.7846 243.898 41.4225 243.683 41.0717 243.463C40.9399 243.381 40.7974 243.292 40.6657 243.204L40.5669 243.138C40.2597 242.929 39.9528 242.72 39.6509 242.494C39.4479 242.34 39.2396 242.191 39.0422 242.032C38.7077 241.778 38.3839 241.509 38.0714 241.228C37.9067 241.09 37.7423 240.936 37.5888 240.793C36.9712 240.222 36.387 239.615 35.8392 238.976C35.6581 238.767 35.4771 238.558 35.307 238.338C35.2687 238.294 35.2358 238.25 35.1972 238.2C32.3696 234.619 30.6687 230.274 30.3114 225.719C29.954 221.164 30.9565 216.605 33.1909 212.624C35.4254 208.643 38.7905 205.42 42.8571 203.367C46.9238 201.313 51.5076 200.522 56.024 201.094C60.5404 201.666 64.7848 203.575 68.2157 206.578C71.6467 209.582 74.1087 213.542 75.2879 217.956C76.467 222.369 76.3098 227.035 74.8364 231.358C73.3629 235.681 70.6399 239.466 67.0147 242.23H67.0146Z" fill="#3F3D56"/>
<path d="M93.7055 97.0529C85.2656 89.9045 74.9376 85.3725 63.9784 84.0084C53.0191 82.6443 41.9011 84.5069 31.9773 89.3695C22.0534 94.2322 13.7516 101.885 8.08202 111.397C2.41243 120.91 -0.380472 131.871 0.0431648 142.947C0.466802 154.023 4.08871 164.737 10.4682 173.785C16.8476 182.833 25.7096 189.825 35.9756 193.909C46.2417 197.994 57.4692 198.996 68.292 196.792C79.1148 194.589 89.0662 189.275 96.9353 181.498L166.812 240.68C167.876 241.578 169.25 242.015 170.635 241.897C172.02 241.779 173.301 241.114 174.198 240.049C175.095 238.984 175.535 237.605 175.421 236.215C175.307 234.825 174.649 233.537 173.59 232.633L173.582 232.626L103.706 173.444C111.823 161.75 115.298 147.435 113.448 133.304C111.598 119.173 104.557 106.245 93.7055 97.0529ZM89.2009 167.745C83.7572 174.221 76.5227 178.931 68.4122 181.279C60.3017 183.628 51.6795 183.51 43.636 180.94C35.5924 178.37 28.4887 173.463 23.2233 166.841C17.9578 160.219 14.767 152.178 14.0544 143.735C13.3419 135.292 15.1395 126.827 19.2199 119.41C23.3004 111.993 29.4805 105.957 36.9787 102.065C44.4768 98.1737 52.9563 96.6013 61.3448 97.5468C69.7334 98.4924 77.6542 101.914 84.1056 107.378C92.7567 114.705 98.1537 125.181 99.1092 136.502C100.065 147.823 96.5006 159.062 89.2009 167.745Z" fill="#3F3D56"/>
<path opacity="0.3" d="M29.058 172.86C20.8703 165.925 15.5804 156.152 14.2387 145.483C12.8971 134.815 15.6017 124.029 21.8156 115.27C20.9995 116.094 20.2106 116.958 19.4489 117.861C15.8344 122.161 13.099 127.133 11.399 132.494C9.69889 137.854 9.06739 143.499 9.54053 149.104C10.0137 154.71 11.5822 160.167 14.1565 165.165C16.7308 170.162 20.2606 174.601 24.5441 178.229C28.8277 181.857 33.7813 184.603 39.122 186.309C44.4628 188.016 50.0861 188.65 55.6708 188.175C61.2556 187.7 66.6925 186.125 71.6711 183.541C76.6497 180.957 81.0725 177.414 84.687 173.115C85.447 172.211 86.1627 171.285 86.8341 170.337C79.2766 177.959 69.1398 182.45 58.4365 182.917C47.7332 183.384 37.2463 179.794 29.058 172.86Z" fill="#2F2E41"/>
<path d="M234.576 242.893C235.122 242.224 235.515 241.443 235.728 240.606C235.94 239.768 235.967 238.893 235.807 238.044C235.647 237.194 235.302 236.39 234.799 235.689C234.296 234.987 233.645 234.405 232.893 233.983L220.156 181.656L210.865 184.633L224.618 236.603C223.996 237.918 223.876 239.416 224.28 240.814C224.685 242.212 225.586 243.412 226.814 244.188C228.041 244.963 229.509 245.259 230.94 245.021C232.371 244.782 233.664 244.025 234.576 242.893H234.576Z" fill="#FFB6B6"/>
<path d="M227.993 209.422L221.203 215.301L211.703 223.521L207.507 201.974L207.069 199.733L206.723 197.955L216.349 181.125L224.373 181.587L224.922 181.62L224.933 181.742L225.059 182.87L226.704 197.723L226.743 198.081L227.993 209.422Z" fill="#2F2E41"/>
<path d="M183.611 355.685L176.887 355.684L173.688 329.65L183.612 329.651L183.611 355.685Z" fill="#FFB6B6"/>
<path d="M185.326 362.227L163.644 362.226V361.951C163.644 359.704 164.533 357.55 166.116 355.961C167.699 354.373 169.845 353.48 172.083 353.48H172.084L185.326 353.481L185.326 362.227Z" fill="#EFBA0F"/>
<path d="M253.816 356.235L247.092 356.235L243.893 330.201L253.818 330.201L253.816 356.235Z" fill="#FFB6B6"/>
<path d="M255.531 362.777L233.849 362.777V362.501C233.85 360.255 234.739 358.1 236.321 356.512C237.904 354.923 240.05 354.031 242.289 354.031H242.289L255.532 354.031L255.531 362.777Z" fill="#EFBA0F"/>
<path d="M259.191 345.872L241.091 348.624L214.758 259.174L186.791 349.175L166.498 346.422L192.825 241.821V233.563L196.39 221.176L196.017 217.823L193.422 194.376L192.298 184.208L192.225 183.551C192.164 183 192.309 182.445 192.633 181.996C192.957 181.546 193.436 181.234 193.976 181.119L202.423 179.336H216.228L224.373 181.587L224.933 181.742L225.185 181.813L225.059 182.87L223.15 198.935L223.046 199.815L221.203 215.302L220.797 218.699C236.703 230.26 237.251 241.821 237.251 241.821L259.191 345.872Z" fill="#2F2E41"/>
<path d="M207.657 172.37C215.097 172.37 221.128 166.317 221.128 158.849C221.128 151.381 215.097 145.327 207.657 145.327C200.217 145.327 194.186 151.381 194.186 158.849C194.186 166.317 200.217 172.37 207.657 172.37Z" fill="#FFB6B6"/>
<path d="M221.806 215.591L195.158 219.089L195.656 222.911L222.304 219.413L221.806 215.591Z" fill="#EFBA0F"/>
<path d="M159.413 220.241C159.667 220.407 159.909 220.592 160.135 220.796L186.492 214.051L188.291 207.669L198.242 209.134L196.152 220.743C195.984 221.681 195.516 222.539 194.821 223.188C194.125 223.836 193.238 224.241 192.294 224.341L161.518 227.594C161.017 228.654 160.205 229.535 159.192 230.121C158.179 230.707 157.013 230.97 155.847 230.874C154.682 230.778 153.574 230.329 152.669 229.585C151.765 228.841 151.107 227.839 150.784 226.711C150.461 225.583 150.488 224.383 150.861 223.271C151.234 222.159 151.935 221.187 152.872 220.485C153.809 219.782 154.936 219.383 156.104 219.339C157.273 219.296 158.427 219.611 159.413 220.241Z" fill="#FFB6B6"/>
<path d="M199.955 184.566L195.293 180.987C194.032 180.507 192.305 181.871 192.002 183.189L185.42 210.165L199.132 220.075L201.052 217.047L199.955 184.566Z" fill="#2F2E41"/>
<g opacity="0.2">
<path d="M226.704 197.723C225.541 198.187 224.354 198.591 223.15 198.935C222.766 199.05 222.371 199.16 221.982 199.265C219.415 199.98 216.777 200.408 214.116 200.542C212.971 200.591 211.824 200.56 210.683 200.449C209.458 200.326 208.248 200.086 207.069 199.733C207.03 199.722 206.986 199.711 206.948 199.7C204.495 199.001 202.247 197.719 200.393 195.962C199.979 195.557 199.593 195.125 199.236 194.668C198.212 193.409 197.461 191.949 197.03 190.382C196.599 188.816 196.499 187.176 196.735 185.568C196.781 185.276 196.843 184.988 196.922 184.703C197.128 183.929 197.402 183.173 197.739 182.446C197.887 182.105 198.052 181.769 198.227 181.439L204.425 179.336H216.228L224.373 181.587L224.922 181.62L224.933 181.742L225.185 181.813L225.059 182.87L226.704 197.723Z" fill="#2F2E41"/>
</g>
<path d="M197.335 147.654C194.815 147.344 192.051 147.564 190.087 149.178C188.123 150.792 187.49 154.148 189.349 155.882C190.995 157.418 193.568 157.057 195.773 157.493C197.672 157.921 199.374 158.975 200.605 160.488C201.836 162.001 202.527 163.884 202.565 165.838C202.532 171.439 197.177 175.68 196.215 181.198C195.558 184.963 197.14 188.926 199.876 191.586C202.611 194.246 206.372 195.684 210.16 196.073C213.949 196.462 217.78 195.868 221.462 194.891C225.16 193.91 228.8 192.518 231.902 190.273C235.005 188.028 237.548 184.863 238.544 181.157C239.54 177.451 238.825 173.202 236.258 170.356C233.319 167.097 228.429 165.977 225.886 162.398C223.036 158.385 224.091 152.672 221.784 148.322C220.244 145.418 217.328 143.437 214.219 142.393C211.111 141.35 207.792 141.144 204.516 141.043C202.794 140.99 201.019 140.972 199.415 141.602C197.81 142.232 196.4 143.669 196.317 145.396C196.234 147.123 197.335 147.654 197.335 147.654Z" fill="#2F2E41"/>
</g>
<defs>
<clipPath id="clip0_176_657">
<rect width="324" height="363" fill="white"/>
</clipPath>
</defs>
</svg>
