<svg width="52" height="52" viewBox="0 0 52 52" fill="none" xmlns="http://www.w3.org/2000/svg">
<path d="M10.4759 29.1091C13.5583 29.1091 16.0572 26.6355 16.0572 23.5841C16.0572 20.5327 13.5583 18.0591 10.4759 18.0591C7.39338 18.0591 4.89453 20.5327 4.89453 23.5841C4.89453 26.6355 7.39338 29.1091 10.4759 29.1091Z" fill="#E2EAFC"/>
<path d="M10.3999 30.5547C7.01992 30.5958 4.33325 33.3887 4.33325 36.734V38.2897C4.33325 38.6493 4.62792 38.9397 4.99192 38.9397H15.9618C16.1351 38.9402 16.3017 38.8722 16.4251 38.7504C16.5485 38.6287 16.6187 38.463 16.6204 38.2897V36.6365C16.6204 33.2522 13.8276 30.5135 10.4021 30.5547H10.3999Z" fill="#E2EAFC"/>
<path d="M24.6154 28.3033C27.9515 28.3033 30.656 25.6259 30.656 22.3233C30.656 19.0206 27.9515 16.3433 24.6154 16.3433C21.2792 16.3433 18.5747 19.0206 18.5747 22.3233C18.5747 25.6259 21.2792 28.3033 24.6154 28.3033Z" fill="#E2EAFC"/>
<path d="M24.533 29.8654C20.8757 29.9088 17.968 32.9313 17.968 36.5518V38.2894C17.968 38.3753 17.985 38.4604 18.0181 38.5397C18.0512 38.619 18.0996 38.6909 18.1607 38.7514C18.2217 38.8118 18.2942 38.8595 18.3738 38.8918C18.4534 38.9241 18.5386 38.9403 18.6245 38.9394H30.604C30.7774 38.94 30.9439 38.872 31.0673 38.7502C31.1907 38.6284 31.261 38.4628 31.2627 38.2894V36.4478C31.2627 32.7861 28.2424 29.8221 24.533 29.8654ZM40.0529 26.7584C43.8727 26.7584 46.971 23.6904 46.971 19.9074C46.971 16.1244 43.8727 13.0586 40.0529 13.0586C36.2309 13.0586 33.1347 16.1244 33.1347 19.9074C33.1347 23.6904 36.233 26.7584 40.0529 26.7584ZM40.0529 28.5459C35.8495 28.5459 32.4392 31.9216 32.4392 36.0859V38.2894C32.4392 38.6491 32.7339 38.9394 33.0979 38.9394H47.0078C47.1812 38.94 47.3478 38.872 47.4712 38.7502C47.5946 38.6284 47.6648 38.4628 47.6665 38.2894V36.0838C47.6665 31.9216 44.2584 28.5459 40.0529 28.5459Z" fill="#E2EAFC"/>
</svg>
