<svg width="52" height="52" viewBox="0 0 52 52" fill="none" xmlns="http://www.w3.org/2000/svg">
<path d="M19.5866 46.6702C21.6666 47.2985 23.7683 47.6668 25.9999 47.6668C31.7463 47.6668 37.2573 45.3841 41.3206 41.3208C45.3839 37.2575 47.6666 31.7465 47.6666 26.0002C47.6666 23.1549 47.1062 20.3374 46.0173 17.7087C44.9285 15.08 43.3325 12.6915 41.3206 10.6795C39.3086 8.66758 36.9201 7.07162 34.2914 5.98277C31.6627 4.89392 28.8452 4.3335 25.9999 4.3335C23.1546 4.3335 20.3372 4.89392 17.7084 5.98277C15.0797 7.07162 12.6912 8.66758 10.6793 10.6795C6.61598 14.7428 4.33325 20.2538 4.33325 26.0002C4.33325 35.2085 10.1183 43.1168 18.2866 46.2368C18.0916 44.5468 17.8966 41.7518 18.2866 39.8235L20.7783 29.1202C20.7783 29.1202 20.1499 27.8635 20.1499 25.8702C20.1499 22.8802 22.0133 20.6485 24.1366 20.6485C25.9999 20.6485 26.8666 22.0135 26.8666 23.7685C26.8666 25.6318 25.6316 28.2968 25.0033 30.8535C24.6349 32.9768 26.1299 34.8402 28.2966 34.8402C32.1533 34.8402 35.1432 30.7235 35.1432 24.9168C35.1432 19.7168 31.4166 16.1635 26.0649 16.1635C19.9549 16.1635 16.3583 20.7135 16.3583 25.5018C16.3583 27.3652 16.9649 29.2502 17.9616 30.4852C18.1566 30.6152 18.1566 30.7885 18.0916 31.1135L17.4633 33.4752C17.4633 33.8435 17.2249 33.9735 16.8566 33.7135C14.0833 32.5002 12.4799 28.5568 12.4799 25.3718C12.4799 18.5252 17.3332 12.3068 26.6932 12.3068C34.1466 12.3068 39.9533 17.6585 39.9533 24.7652C39.9533 32.2185 35.3383 38.1985 28.7299 38.1985C26.6283 38.1985 24.5699 37.0718 23.8333 35.7502L22.3816 40.8852C21.8833 42.7485 20.5183 45.2402 19.5866 46.7352V46.6702Z" fill="#E2EAFC"/>
</svg>
