<svg width="52" height="52" viewBox="0 0 52 52" fill="none" xmlns="http://www.w3.org/2000/svg">
<path d="M17.875 30.0625C17.2322 30.0625 16.6039 29.8719 16.0694 29.5148C15.5349 29.1577 15.1184 28.6501 14.8724 28.0562C14.6264 27.4624 14.562 26.8089 14.6874 26.1785C14.8128 25.548 15.1224 24.9689 15.5769 24.5144C16.0314 24.0599 16.6105 23.7504 17.241 23.625C17.8714 23.4996 18.5249 23.5639 19.1187 23.8099C19.7126 24.0559 20.2202 24.4725 20.5773 25.0069C20.9344 25.5414 21.125 26.1697 21.125 26.8125C21.125 27.6745 20.7826 28.5011 20.1731 29.1106C19.5636 29.7201 18.737 30.0625 17.875 30.0625ZM34.125 23.5625C33.4822 23.5625 32.8539 23.7531 32.3194 24.1102C31.7849 24.4674 31.3684 24.9749 31.1224 25.5688C30.8764 26.1627 30.812 26.8161 30.9374 27.4466C31.0628 28.077 31.3724 28.6561 31.8269 29.1106C32.2814 29.5651 32.8605 29.8747 33.491 30.0001C34.1214 30.1255 34.7749 30.0611 35.3687 29.8151C35.9626 29.5691 36.4702 29.1526 36.8273 28.6181C37.1844 28.0837 37.375 27.4553 37.375 26.8125C37.375 25.9506 37.0326 25.1239 36.4231 24.5144C35.8136 23.9049 34.987 23.5625 34.125 23.5625ZM31.5859 32.7641C29.8587 33.6548 27.9434 34.1196 26 34.1196C24.0566 34.1196 22.1413 33.6548 20.4141 32.7641C20.1286 32.6174 19.8171 32.5283 19.4973 32.502C19.1774 32.4757 18.8556 32.5126 18.55 32.6107C18.2444 32.7088 17.9612 32.8661 17.7164 33.0736C17.4716 33.2812 17.2701 33.5349 17.1234 33.8203C16.9767 34.1057 16.8877 34.4173 16.8614 34.7371C16.835 35.0569 16.872 35.3788 16.9701 35.6844C17.0681 35.99 17.2254 36.2732 17.433 36.518C17.6405 36.7627 17.8943 36.9642 18.1797 37.111C20.5994 38.3531 23.2801 39.001 26 39.001C28.7199 39.001 31.4006 38.3531 33.8203 37.111C34.3967 36.8147 34.8319 36.3015 35.0299 35.6844C35.228 35.0673 35.1729 34.3968 34.8766 33.8203C34.5803 33.2439 34.0671 32.8088 33.45 32.6107C32.8329 32.4126 32.1624 32.4678 31.5859 32.7641ZM49.1766 26.1625C49.4359 27.1711 49.5656 28.2086 49.5625 29.25C49.5625 33.9828 46.9828 38.3703 42.3312 41.6C37.6797 44.8297 32.1344 46.3125 26 46.3125C19.8656 46.3125 14.0766 44.6469 9.66875 41.6C5.26094 38.5531 2.4375 33.9828 2.4375 29.25C2.43437 28.2086 2.56406 27.1711 2.82344 26.1625C1.83797 25.1256 1.17829 23.8224 0.926077 22.4143C0.673866 21.0062 0.840205 19.555 1.4045 18.2405C1.96879 16.926 2.90624 15.8058 4.10079 15.0188C5.29533 14.2317 6.69448 13.8123 8.125 13.8125C9.69218 13.8081 11.2181 14.3144 12.4719 15.2547C15.8438 13.5485 19.8047 12.5125 23.9281 12.2485L25.2281 4.46877C25.3281 3.8359 25.6752 3.26859 26.1932 2.89152C26.7112 2.51445 27.3577 2.35846 27.9906 2.45783L34.3891 3.45314C34.8431 2.88138 35.4207 2.41988 36.0785 2.10326C36.7364 1.78664 37.4574 1.62314 38.1875 1.62502C39.0745 1.62621 39.9444 1.8694 40.7035 2.32839C41.4625 2.78738 42.0819 3.44476 42.495 4.22973C42.9081 5.0147 43.0992 5.8975 43.0477 6.78303C42.9962 7.66856 42.7041 8.52326 42.2028 9.25505C41.7015 9.98684 41.01 10.568 40.2029 10.9359C39.3958 11.3038 38.5036 11.4445 37.6224 11.3429C36.7412 11.2413 35.9044 10.9012 35.2022 10.3592C34.5001 9.81719 33.959 9.0939 33.6375 8.2672L29.6359 7.65783L28.8641 12.3094C32.7031 12.6547 36.3594 13.65 39.5281 15.2547C40.7819 14.3144 42.3078 13.8081 43.875 13.8125C45.3055 13.8123 46.7047 14.2317 47.8992 15.0188C49.0938 15.8058 50.0312 16.926 50.5955 18.2405C51.1598 19.555 51.3261 21.0062 51.0739 22.4143C50.8217 23.8224 50.162 25.1256 49.1766 26.1625ZM46.3125 21.125C46.314 20.6099 46.1523 20.1075 45.8506 19.69C45.5488 19.2725 45.1226 18.9614 44.633 18.8012C44.1434 18.641 43.6157 18.64 43.1255 18.7984C42.6353 18.9568 42.208 19.2664 41.9047 19.6828C41.5483 20.1795 41.017 20.5226 40.4177 20.6432C39.8185 20.7639 39.1958 20.6529 38.675 20.3328H38.6141C35.1609 18.2203 30.6719 17.0625 26 17.0625C21.3281 17.0625 16.8391 18.2203 13.3859 20.3125H13.325C12.8042 20.6326 12.1815 20.7435 11.5823 20.6229C10.983 20.5023 10.4517 20.1592 10.0953 19.6625C9.79105 19.2447 9.36183 18.9343 8.86965 18.7764C8.37748 18.6185 7.84783 18.6211 7.35724 18.7838C6.86664 18.9466 6.44049 19.2611 6.14035 19.682C5.84021 20.1028 5.68163 20.6082 5.6875 21.125C5.68249 21.5489 5.79097 21.9665 6.0017 22.3344C6.21242 22.7023 6.51772 23.0071 6.88594 23.2172C7.39693 23.5195 7.78001 23.998 7.96327 24.5627C8.14653 25.1274 8.11736 25.7396 7.88125 26.2844C7.51121 27.2296 7.31841 28.2349 7.3125 29.25C7.3125 32.3375 9.14063 35.3031 12.4516 37.5781C15.7625 39.8531 20.8406 41.4375 26 41.4375C31.1594 41.4375 35.9734 40.0766 39.5484 37.5781C43.1234 35.0797 44.6875 32.3375 44.6875 29.25C44.6825 28.2263 44.4825 27.213 44.0984 26.2641C43.8741 25.7188 43.8533 25.1111 44.0398 24.5518C44.2262 23.9925 44.6075 23.5188 45.1141 23.2172C45.4823 23.0071 45.7876 22.7023 45.9983 22.3344C46.209 21.9665 46.3175 21.5489 46.3125 21.125Z" fill="#E2EAFC"/>
</svg>
