<svg width="52" height="52" viewBox="0 0 52 52" fill="none" xmlns="http://www.w3.org/2000/svg">
<path d="M25.7204 47.1553C23.1421 47.1553 21.4217 45.9398 19.8856 44.8673C18.7957 44.0938 17.7709 43.3593 16.5641 43.1557C15.9894 43.0568 15.4072 43.009 14.8242 43.0127C13.8016 43.0127 12.9891 43.1665 12.4106 43.2835C12.0422 43.3485 11.7346 43.4092 11.4919 43.4092C11.2406 43.4092 10.9221 43.3398 10.7986 42.9152C10.6902 42.5685 10.6231 42.2392 10.5559 41.9207C10.3826 41.119 10.2374 40.6272 9.93622 40.5773C6.71005 40.0855 4.77955 39.3423 4.40255 38.4627C4.37222 38.3673 4.33538 38.2677 4.33538 38.1918C4.31372 37.921 4.50872 37.7 4.77955 37.6502C7.33838 37.2255 9.63722 35.8648 11.5786 33.6245C13.0866 31.8847 13.821 30.2033 13.8882 30.0213C13.8882 29.9997 13.9077 29.9997 13.9077 29.9997C14.2761 29.2392 14.3519 28.5913 14.1287 28.0605C13.7149 27.0638 12.3412 26.6392 11.4052 26.3488C11.1647 26.2838 10.9611 26.2058 10.7877 26.1473C9.98605 25.8288 8.65138 25.1507 8.82688 24.2147C8.95255 23.5387 9.84955 23.0555 10.5841 23.0555C10.7877 23.0555 10.9611 23.0858 11.1041 23.1638C11.9274 23.5387 12.6706 23.7315 13.3076 23.7315C14.1006 23.7315 14.4775 23.4325 14.5729 23.3372C14.5527 22.9086 14.5274 22.4803 14.4971 22.0523C14.3021 19.0948 14.0811 15.4245 15.0171 13.3207C17.8294 7.02217 23.7986 6.51733 25.5666 6.51733L26.3379 6.5H26.4462C28.2121 6.5 34.1812 6.99183 36.9936 13.3012C37.9404 15.405 37.7086 19.0862 37.5136 22.0328L37.4962 22.178C37.4746 22.5723 37.4464 22.9493 37.4269 23.3372C37.5244 23.413 37.8711 23.7033 38.5861 23.712C39.2057 23.6947 39.8817 23.491 40.6531 23.1422C40.8666 23.0498 41.0964 23.0012 41.3291 22.9992C41.5999 22.9992 41.8707 23.0642 42.1025 23.1422H42.1221C42.7699 23.3848 43.1946 23.8377 43.1946 24.3122C43.2141 24.7563 42.8652 25.4323 41.2142 26.0997C41.0409 26.1647 40.8372 26.2448 40.5967 26.3012C39.678 26.5828 38.3066 27.027 37.8711 28.0128C37.6306 28.5328 37.7281 29.2002 38.0942 29.952C38.0942 29.9737 38.1137 29.9737 38.1137 29.9737C38.2199 30.2423 41.0106 36.5798 47.2224 37.6133C47.3494 37.6347 47.4643 37.7014 47.5459 37.801C47.6276 37.9005 47.6704 38.0263 47.6666 38.155C47.668 38.2523 47.6449 38.3485 47.5994 38.4345C47.2224 39.3228 45.3092 40.0465 42.0635 40.5492C41.7645 40.5968 41.6194 41.0908 41.446 41.8925C41.3767 42.2267 41.2957 42.5584 41.2034 42.887C41.1081 43.2055 40.9044 43.3788 40.5577 43.3788H40.5079C40.1997 43.3726 39.8928 43.3371 39.5914 43.2727C38.7973 43.1035 37.9875 43.0192 37.1756 43.0213C36.5934 43.0227 36.0122 43.0712 35.4379 43.1665C34.2397 43.3615 33.2062 44.1047 32.1142 44.8782C30.5607 45.9398 28.8317 47.1553 26.2707 47.1553H25.7204Z" fill="#E2EAFC"/>
</svg>
