<svg width="52" height="52" viewBox="0 0 52 52" fill="none" xmlns="http://www.w3.org/2000/svg">
<path d="M38.7832 23.6168C31.8499 19.5002 20.2583 19.0668 13.6499 21.1252C12.5666 21.4502 11.4833 20.8002 11.1583 19.8252C10.8333 18.7418 11.4833 17.6585 12.4583 17.3335C20.1499 15.0585 32.8249 15.4918 40.8416 20.2585C41.8166 20.8002 42.1416 22.1002 41.5999 23.0752C41.0583 23.8335 39.7582 24.1585 38.7832 23.6168ZM38.5666 29.6835C38.0249 30.4418 37.0499 30.7668 36.2916 30.2252C30.4416 26.6502 21.5583 25.5668 14.7333 27.7335C13.8666 27.9502 12.8916 27.5168 12.6749 26.6502C12.4583 25.7835 12.8916 24.8085 13.7583 24.5918C21.6666 22.2085 31.4166 23.4002 38.1333 27.5168C38.7833 27.8418 39.1082 28.9252 38.5666 29.6835ZM35.9666 35.6418C35.5333 36.2918 34.7749 36.5085 34.1249 36.0752C29.0333 32.9335 22.6416 32.2835 15.0583 34.0168C14.2999 34.2335 13.6499 33.6918 13.4333 33.0418C13.2166 32.2835 13.7583 31.6335 14.4083 31.4168C22.6416 29.5752 29.7916 30.3335 35.4249 33.8002C36.1833 34.1252 36.2916 34.9918 35.9666 35.6418ZM25.9999 4.3335C23.1546 4.3335 20.3372 4.89392 17.7084 5.98277C15.0797 7.07162 12.6912 8.66758 10.6793 10.6795C6.61598 14.7428 4.33325 20.2538 4.33325 26.0002C4.33325 31.7465 6.61598 37.2575 10.6793 41.3208C12.6912 43.3327 15.0797 44.9287 17.7084 46.0176C20.3372 47.1064 23.1546 47.6668 25.9999 47.6668C31.7463 47.6668 37.2573 45.3841 41.3206 41.3208C45.3839 37.2575 47.6666 31.7465 47.6666 26.0002C47.6666 23.1549 47.1062 20.3374 46.0173 17.7087C44.9285 15.08 43.3325 12.6915 41.3206 10.6795C39.3086 8.66758 36.9201 7.07162 34.2914 5.98277C31.6627 4.89392 28.8452 4.3335 25.9999 4.3335Z" fill="#E2EAFC"/>
</svg>
