<svg width="52" height="52" viewBox="0 0 52 52" fill="none" xmlns="http://www.w3.org/2000/svg">
<path d="M25.9999 4.3335C28.8452 4.3335 31.6627 4.89392 34.2914 5.98277C36.9201 7.07162 39.3086 8.66758 41.3206 10.6795C43.3325 12.6915 44.9285 15.08 46.0173 17.7087C47.1062 20.3374 47.6666 23.1549 47.6666 26.0002C47.6666 31.7465 45.3839 37.2575 41.3206 41.3208C37.2573 45.3841 31.7463 47.6668 25.9999 47.6668C16.0333 47.6668 7.69158 40.9935 5.11325 31.9152L13.4116 35.3385C13.6971 36.7258 14.4519 37.9724 15.549 38.8683C16.6462 39.7641 18.0185 40.2545 19.4349 40.2568C22.8149 40.2568 25.5666 37.5052 25.5666 34.1252V33.8435L32.9332 28.5785H33.1066C37.6132 28.5785 41.2749 24.9168 41.2749 20.4102C41.2749 15.9035 37.6132 12.2418 33.1066 12.2418C28.5999 12.2418 24.9166 15.9035 24.9166 20.4102V20.5185L19.7816 28.0152L19.4349 27.9935C18.1566 27.9935 16.9649 28.3835 15.9899 29.0552L4.33325 24.2668C5.26492 13.1085 14.5816 4.3335 25.9999 4.3335ZM17.9399 37.2018C19.6733 37.9168 21.6666 37.1152 22.3816 35.3818C23.0966 33.6485 22.2733 31.6768 20.5833 30.9618L17.8099 29.8135C18.8716 29.4235 20.0633 29.4018 21.1899 29.8785C22.3382 30.3335 23.2266 31.2218 23.6816 32.3702C24.1583 33.4968 24.1583 34.7535 23.6816 35.8802C22.7499 38.2202 19.9983 39.3468 17.6583 38.3718C16.5749 37.9168 15.7516 37.0935 15.2966 36.1185L17.9399 37.2018ZM38.5666 20.4102C38.5666 23.4218 36.1182 25.8702 33.1066 25.8702C31.6623 25.8644 30.279 25.2867 29.2598 24.2633C28.2405 23.24 27.6682 21.8545 27.6683 20.4102C27.6654 19.6952 27.8041 18.9867 28.0764 18.3256C28.3487 17.6645 28.7491 17.0639 29.2547 16.5583C29.7603 16.0527 30.3609 15.6522 31.022 15.38C31.6831 15.1077 32.3916 14.969 33.1066 14.9718C34.5509 14.9718 35.9364 15.5441 36.9597 16.5634C37.9831 17.5826 38.5608 18.9658 38.5666 20.4102ZM29.0332 20.4102C29.0332 22.6635 30.8533 24.5052 33.1282 24.5052C35.3816 24.5052 37.2016 22.6635 37.2016 20.4102C37.2016 18.1568 35.3816 16.3152 33.1282 16.3152C30.8533 16.3152 29.0332 18.1568 29.0332 20.4102Z" fill="#E2EAFC"/>
</svg>
