<svg width="52" height="52" viewBox="0 0 52 52" fill="none" xmlns="http://www.w3.org/2000/svg">
<path d="M13.585 16.5318C16.3733 15.9301 18.8713 14.3914 20.6631 12.1719C22.4549 9.95235 23.4323 7.186 23.4325 4.3335H29.9975V15.4962H37.8776V23.3742H29.9996V35.1912C29.9996 36.307 30.4265 37.8063 31.9691 38.803C32.9961 39.4682 35.1845 39.7953 38.5341 39.7888V47.6668H29.3431C28.0498 47.6671 26.769 47.4126 25.574 46.9179C24.379 46.4231 23.2931 45.6978 22.3785 44.7833C21.4638 43.8689 20.7383 42.7832 20.2433 41.5883C19.7482 40.3934 19.4935 39.1127 19.4935 37.8193V23.3742H13.585V16.5318Z" fill="#E2EAFC"/>
</svg>
