<svg width="52" height="52" viewBox="0 0 52 52" fill="none" xmlns="http://www.w3.org/2000/svg">
<path d="M48.6633 13.0001C46.995 13.7584 45.1967 14.2567 43.3333 14.4951C45.24 13.3467 46.7133 11.5267 47.4067 9.33841C45.6083 10.4217 43.615 11.1801 41.5133 11.6134C39.8017 9.75008 37.3967 8.66675 34.6667 8.66675C29.575 8.66675 25.415 12.8267 25.415 17.9617C25.415 18.6984 25.5017 19.4134 25.6533 20.0851C17.94 19.6951 11.0717 15.9901 6.5 10.3784C5.69834 11.7434 5.24334 13.3467 5.24334 15.0367C5.24334 18.2651 6.86834 21.1251 9.38167 22.7501C7.84334 22.7501 6.41334 22.3167 5.15667 21.6667V21.7317C5.15667 26.2384 8.36334 30.0084 12.61 30.8534C11.2466 31.2265 9.81521 31.2784 8.42834 31.0051C9.01682 32.8521 10.1693 34.4683 11.7239 35.6264C13.2784 36.7846 15.1568 37.4264 17.095 37.4617C13.8095 40.0627 9.737 41.4686 5.54667 41.4484C4.81 41.4484 4.07334 41.4051 3.33667 41.3184C7.45334 43.9617 12.35 45.5001 17.5933 45.5001C34.6667 45.5001 44.0483 31.3301 44.0483 19.0451C44.0483 18.6334 44.0483 18.2434 44.0267 17.8317C45.8467 16.5317 47.4067 14.8851 48.6633 13.0001Z" fill="#E2EAFC"/>
</svg>
