<svg width="52" height="52" viewBox="0 0 52 52" fill="none" xmlns="http://www.w3.org/2000/svg">
<path d="M21.6666 32.4999L32.9116 25.9999L21.6666 19.4999V32.4999ZM46.7132 15.5349C46.9949 16.5533 47.1899 17.9183 47.3199 19.6516C47.4716 21.3849 47.5366 22.8799 47.5366 24.1799L47.6666 25.9999C47.6666 30.7449 47.3199 34.2332 46.7132 36.4649C46.1716 38.4149 44.9149 39.6716 42.9649 40.2132C41.9466 40.4949 40.0833 40.6899 37.2233 40.8199C34.4066 40.9716 31.8283 41.0366 29.4449 41.0366L25.9999 41.1666C16.9216 41.1666 11.2666 40.8199 9.03492 40.2132C7.08492 39.6716 5.82825 38.4149 5.28659 36.4649C5.00492 35.4466 4.80992 34.0816 4.67992 32.3483C4.52825 30.6149 4.46325 29.1199 4.46325 27.8199L4.33325 25.9999C4.33325 21.2549 4.67992 17.7666 5.28659 15.5349C5.82825 13.5849 7.08492 12.3283 9.03492 11.7866C10.0533 11.5049 11.9166 11.3099 14.7766 11.1799C17.5933 11.0283 20.1716 10.9633 22.5549 10.9633L25.9999 10.8333C35.0782 10.8333 40.7332 11.1799 42.9649 11.7866C44.9149 12.3283 46.1716 13.5849 46.7132 15.5349Z" fill="#E2EAFC"/>
</svg>
